<svg xmlns="http://www.w3.org/2000/svg" width="17.885" height="17.9" viewBox="0 0 17.885 17.9">
  <g id="Group_43385" data-name="Group 43385" transform="translate(-671.972 -285.753)">
    <path id="Path_44427" data-name="Path 44427" d="M685.463,297.163c-.006-.542-.006-1.087-.006-1.614v-1.324c0-.7,0-1.2.006-1.624a.833.833,0,0,0-.449-.794c-.875-.521-1.862-1.113-2.642-1.586-.6-.361-.9-.548-1.209-.734a.811.811,0,0,0-.934,0c-1.265.776-2.459,1.5-3.875,2.336a.785.785,0,0,0-.425.737c.008,1.566.008,3.121,0,4.625a.786.786,0,0,0,.421.742c1.592.949,2.8,1.675,3.9,2.352l.063.038a.856.856,0,0,0,.389.1.819.819,0,0,0,.433-.136h0c1.524-.926,2.725-1.65,3.9-2.349A.806.806,0,0,0,685.463,297.163Zm-5.431,1.424-.469-.282c-.88-.528-1.561-.939-2.205-1.332a.291.291,0,0,1-.078-.091l-.012-.044c-.008-.883-.008-1.748-.008-2.664v-.52l.185.1c.043.023.084.046.122.07l.463.278c.643.386,1.253.757,1.816,1.1a.432.432,0,0,1,.166.2l.008.034c.012.835.012,1.648.012,2.51Zm.755-4.492-.029.018h-.06a.341.341,0,0,1-.054-.005l-.011,0-.027-.009c-.763-.456-1.506-.9-2.293-1.378l-.438-.263.62-.355c.231-.133.446-.274.655-.411l.041-.026c.213-.14.477-.313.759-.473l.02-.012a1.789,1.789,0,0,1,.692-.285l.025-.005.05.01.8.386,1.345.808s.295.171.446.261l.181.106-1.408.848C681.659,293.573,681.226,293.833,680.787,294.1Zm3.345,1.1c0,.492,0,1-.006,1.5a.515.515,0,0,1-.068.243l-.034.037c-.622.386-1.23.753-1.875,1.14l-.239.145c-.115.075-.232.143-.361.218l-.19.109v-.56c0-.9,0-1.74.005-2.6a.265.265,0,0,1,.057-.141l.024-.023c.461-.284.915-.558,1.38-.838l1.307-.787Z" fill="#12181c"/>
    <path id="Path_44428" data-name="Path 44428" d="M689.174,298.526a.685.685,0,0,0-.684.684v3.075h-3.065a.683.683,0,1,0,0,1.366h3.75a.683.683,0,0,0,.682-.683V299.21A.684.684,0,0,0,689.174,298.526Z" fill="#12181c"/>
    <path id="Path_44429" data-name="Path 44429" d="M676.4,302.287h-3.064V299.21a.684.684,0,1,0-1.367,0v3.759a.685.685,0,0,0,.682.682l3.749,0a.683.683,0,1,0,0-1.366Z" fill="#12181c"/>
    <path id="Path_44430" data-name="Path 44430" d="M672.655,290.881a.685.685,0,0,0,.684-.684v-3.074H676.4a.685.685,0,1,0,0-1.37h-3.747a.684.684,0,0,0-.486.2.674.674,0,0,0-.2.483V290.2A.684.684,0,0,0,672.655,290.881Z" fill="#12181c"/>
    <path id="Path_44431" data-name="Path 44431" d="M689.659,285.955a.681.681,0,0,0-.484-.2h-3.75a.685.685,0,0,0,0,1.37h3.065V290.2a.684.684,0,1,0,1.367,0v-3.759A.673.673,0,0,0,689.659,285.955Z" fill="#12181c"/>
  </g>
</svg>
