<svg xmlns="http://www.w3.org/2000/svg" width="18.45" height="17.961" viewBox="0 0 18.45 17.961">
  <g id="arrow-up-to-line" transform="translate(21.225 20.98) rotate(180)">
    <path id="Path_80809" data-name="Path 80809" d="M12.743,9.724,15.4,12.378a.739.739,0,0,0,1.031-1.053h0L12.486,7.385a.735.735,0,0,0-1.005.034L7.563,11.336a.738.738,0,0,0,1.053,1.03h0l2.651-2.648V20.268a.739.739,0,0,0,1.477,0h0Z"/>
    <path id="Path_80810" data-name="Path 80810" d="M3.514,4.5H20.486a.739.739,0,1,0,0-1.478H3.514a.739.739,0,1,0,0,1.478Z"/>
  </g>
</svg>
