<!-- Generated by IcoMoon.io -->
<svg version="1.1" xmlns="http://www.w3.org/2000/svg" width="24" height="24" viewBox="0 0 24 24">
<title>arrow-left</title>
<path d="M16.335 11.363h-7.132l2.524-2.527c0.115-0.115 0.186-0.275 0.186-0.451s-0.071-0.335-0.186-0.451l0 0c-0.117-0.112-0.276-0.181-0.451-0.181s-0.334 0.069-0.451 0.181l0-0-3.611 3.615c-0.115 0.115-0.187 0.275-0.187 0.451s0.071 0.335 0.187 0.451l3.613 3.613c0.117 0.112 0.276 0.181 0.451 0.181s0.334-0.069 0.451-0.181l-0 0c0.115-0.115 0.187-0.274 0.187-0.45s-0.071-0.335-0.187-0.45l-2.529-2.527h7.135c0.352 0 0.637-0.285 0.637-0.637s-0.285-0.637-0.637-0.637v0z"></path>
</svg>
