<svg xmlns="http://www.w3.org/2000/svg" width="16" height="19.28" viewBox="0 0 16 19.28">
  <path id="Path_44786" data-name="Path 44786" d="M260.792,908.567V891.943A1.725,1.725,0,0,0,259,890.3H246.585a1.725,1.725,0,0,0-1.793,1.644v16.624a.99.99,0,0,0,.553.877,1.183,1.183,0,0,0,1.106,0l6.341-3.392,6.341,3.392a1.234,1.234,0,0,0,1.131-.022A.957.957,0,0,0,260.792,908.567Zm-1.517-.663-6.483-3.469-6.483,3.469V892.18a.5.5,0,0,1,.495-.49h11.9a.525.525,0,0,1,.574.49Z" transform="translate(-244.792 -890.299)"/>
</svg>
