<!-- Generated by IcoMoon.io -->
<svg version="1.1" xmlns="http://www.w3.org/2000/svg" width="24" height="24" viewBox="0 0 24 24">
<title>calender</title>
<path d="M17.424 5.466h-0.261v-0.594c-0.015-0.379-0.325-0.68-0.706-0.68s-0.692 0.302-0.706 0.679l-0 0.001v0.594h-7.613v-0.594c0-0.39-0.316-0.707-0.707-0.707s-0.707 0.316-0.707 0.707v0 0.594h-0.148v0.012c-0.010-0-0.023-0-0.035-0-1.764 0-3.197 1.42-3.218 3.179l-0 0.002v7.994c0.020 1.762 1.453 3.182 3.218 3.182 0.012 0 0.025-0 0.037-0l-0.002 0h10.848c0.002 0 0.005 0 0.007 0 0.894 0 1.705-0.357 2.298-0.936l-0.001 0.001c0.586-0.572 0.949-1.37 0.949-2.252 0-0.001 0-0.003 0-0.004v0-7.995c-0.020-1.762-1.453-3.182-3.218-3.182-0.012 0-0.025 0-0.037 0l0.002-0zM19.273 16.655v0c-0.012 1.001-0.825 1.808-1.828 1.808-0.007 0-0.015-0-0.022-0l0.001 0h-10.851c-0.006 0-0.013 0-0.020 0-1.002 0-1.816-0.807-1.828-1.807l-0-0.001v-7.99c0.012-1.001 0.825-1.808 1.828-1.808 0.007 0 0.015 0 0.022 0l-0.001-0v-0.011h0.148v0.444c0.007 0.379 0.316 0.684 0.696 0.684 0.003 0 0.007-0 0.010-0h-0.001c0.001 0 0.003 0 0.004 0 0.19 0 0.363-0.074 0.491-0.196l-0 0c0.13-0.123 0.211-0.296 0.213-0.488v-0.444h7.61v0.444c0.007 0.379 0.316 0.684 0.696 0.684 0.003 0 0.007-0 0.010-0h-0.001c0.001 0 0.002 0 0.003 0 0.19 0 0.364-0.074 0.492-0.196l-0 0c0.129-0.123 0.21-0.296 0.212-0.488v-0.444h0.262c0.006-0 0.012-0 0.019-0 1.003 0 1.817 0.807 1.829 1.806l0 0.001z"></path>
<path d="M7.435 7.98v0z"></path>
<path d="M16.458 7.98v0z"></path>
<path d="M8.581 10.268h-1.363c-0.002-0-0.005-0-0.008-0-0.383 0-0.694 0.309-0.698 0.691v0c0.005 0.382 0.317 0.69 0.7 0.69 0.003 0 0.006-0 0.008-0h1.36c0.193 0 0.368-0.076 0.497-0.201l-0 0c0.129-0.125 0.208-0.299 0.208-0.492 0-0.19-0.077-0.362-0.202-0.486l-0-0c-0.128-0.126-0.304-0.203-0.498-0.203-0.002 0-0.003 0-0.005 0h0z"></path>
<path d="M8.581 14.391h-1.363c-0.002-0-0.005-0-0.007-0-0.383 0-0.695 0.309-0.699 0.691v0c0.005 0.382 0.316 0.689 0.699 0.689 0.003 0 0.006-0 0.009-0h1.36c0.002 0 0.005 0 0.007 0 0.19 0 0.362-0.074 0.489-0.196l-0 0c0.129-0.125 0.208-0.299 0.208-0.492 0-0.19-0.077-0.362-0.202-0.486l-0-0c-0.129-0.128-0.306-0.207-0.502-0.207-0 0-0 0-0 0h0z"></path>
<path d="M12.732 10.268h-1.369c-0.002-0-0.005-0-0.008-0-0.383 0-0.694 0.309-0.698 0.691v0c0.005 0.382 0.317 0.69 0.7 0.69 0.003 0 0.006-0 0.008-0h1.366c0.193 0 0.368-0.076 0.497-0.201l-0 0c0.129-0.125 0.208-0.299 0.208-0.492 0-0.19-0.077-0.362-0.202-0.486l-0-0c-0.128-0.126-0.304-0.203-0.498-0.203-0.002 0-0.003 0-0.005 0h0z"></path>
<path d="M12.732 14.391h-1.369c-0.002-0-0.005-0-0.007-0-0.383 0-0.695 0.309-0.699 0.691v0c0.005 0.382 0.316 0.689 0.699 0.689 0.003 0 0.006-0 0.009-0h1.366c0.002 0 0.005 0 0.007 0 0.19 0 0.362-0.074 0.489-0.196l-0 0c0.129-0.125 0.208-0.299 0.208-0.492 0-0.19-0.077-0.362-0.202-0.486l-0-0c-0.129-0.128-0.306-0.207-0.502-0.207-0 0-0 0-0 0v0z"></path>
<path d="M16.779 10.268h-1.363c-0.002-0-0.005-0-0.007-0-0.383 0-0.695 0.309-0.699 0.691v0c0.005 0.382 0.317 0.69 0.7 0.69 0.003 0 0.006-0 0.008-0h1.36c0 0 0.001 0 0.001 0 0.193 0 0.368-0.076 0.496-0.201l-0 0c0.129-0.125 0.208-0.299 0.208-0.492 0-0.19-0.077-0.362-0.202-0.486l-0-0c-0.128-0.126-0.304-0.203-0.498-0.203-0.002 0-0.003 0-0.005 0h0z"></path>
<path d="M16.779 14.391h-1.363c-0.002-0-0.004-0-0.006-0-0.383 0-0.695 0.308-0.7 0.691v0c0.005 0.382 0.316 0.689 0.699 0.689 0.003 0 0.006-0 0.009-0h1.36c0.002 0 0.005 0 0.008 0 0.19 0 0.362-0.074 0.489-0.196l-0 0c0.129-0.125 0.208-0.299 0.208-0.492 0-0.19-0.077-0.362-0.202-0.486l-0-0c-0.129-0.128-0.306-0.207-0.502-0.207-0 0-0 0-0 0h0z"></path>
</svg>
