<svg xmlns="http://www.w3.org/2000/svg" width="17.345" height="16" viewBox="0 0 17.345 16">
  <path id="calender-days-2" d="M247.4,1188.8a3.273,3.273,0,0,1-3.252-3.3v-8.292a3.273,3.273,0,0,1,3.245-3.3h.207v-.519a.589.589,0,0,1,1.177,0v.519h7.971v-.519a.592.592,0,1,1,1.185,0v.519h.306a3.272,3.272,0,0,1,3.254,3.294v8.291a3.275,3.275,0,0,1-3.249,3.3H247.4Zm-1.842-3.3a1.861,1.861,0,0,0,1.842,1.871h10.839a1.861,1.861,0,0,0,1.843-1.871v-6.846H245.561Zm0-8.285v.26h14.524v-.26a1.859,1.859,0,0,0-1.843-1.87h-.306v.122a.592.592,0,0,1-1.185,0v-.122H248.78v.122a.589.589,0,1,1-1.177.022v-.144h-.2A1.858,1.858,0,0,0,245.561,1177.207Zm6.737,7.827a.593.593,0,0,1,0-1.185h1.142a.593.593,0,1,1,0,1.185Zm-4.274,0a.593.593,0,1,1,0-1.185h1.142a.593.593,0,0,1,0,1.185Zm8.453-3.355a.589.589,0,0,1,0-1.179h1.142a.589.589,0,1,1,0,1.179Zm-4.179,0a.589.589,0,0,1,0-1.179h1.142a.589.589,0,1,1,0,1.179Zm-4.274,0a.589.589,0,1,1,0-1.179h1.142a.589.589,0,0,1,0,1.179Z" transform="translate(-244.151 -1172.795)" fill="#1d1d1b"/>
</svg>
