<svg xmlns="http://www.w3.org/2000/svg" width="16.369" height="18" viewBox="0 0 16.369 18">
  <g id="Group_176975" data-name="Group 176975" transform="translate(-544.328 -1359.657)">
    <path id="Path_80809" data-name="Path 80809" d="M560.08,1374.082c-1.282-1.3-2.591-2.576-3.893-3.857a.981.981,0,0,0-.374-.224c-.895-.278-1.8-.543-2.694-.813a.724.724,0,0,0-.773.162.707.707,0,0,0-.172.745c.259.91.508,1.823.773,2.731a.929.929,0,0,0,.227.386q1.93,1.922,3.869,3.832a2.013,2.013,0,0,0,1.3.606h.005a2.186,2.186,0,0,0,2.165-1.293A1.987,1.987,0,0,0,560.08,1374.082Zm-3.2.793c-.026-.024-.073-.065-.117-.109q-1.185-1.164-2.36-2.339a.644.644,0,0,1-.153-.264c-.124-.408-.235-.818-.361-1.263.467.139.9.267,1.333.4a.275.275,0,0,1,.1.068l2.56,2.512Zm2.353.808a.658.658,0,0,1-.505.531.741.741,0,0,1-.8-.3h0l.988-.978A.7.7,0,0,1,559.236,1375.683Z" fill="#06090f"/>
    <path id="Path_80810" data-name="Path 80810" d="M551.033,1376.246v0c-1.252.016-2.5.006-3.753,0a1.433,1.433,0,0,1-1.526-1.33,1.347,1.347,0,0,1,0-.179v-10.417a1.426,1.426,0,0,1,1.354-1.495h0a1.4,1.4,0,0,1,.16,0h2.154a2.192,2.192,0,0,0,.466,1.677,2.1,2.1,0,0,0,1.55.781,2.062,2.062,0,0,0,1.452-.465,2.168,2.168,0,0,0,.794-1.984c.053,0,.082-.008.106-.008h2.116a1.606,1.606,0,0,1,.385.056,1.4,1.4,0,0,1,1.059,1.413v2.968a1.043,1.043,0,0,0,.028.295.714.714,0,0,0,.881.483.7.7,0,0,0,.516-.685v-3.093a3.286,3.286,0,0,0-.032-.433,2.824,2.824,0,0,0-2.778-2.407h-2.279v-1.065a.694.694,0,0,0-.691-.7h-2.888a.688.688,0,0,0-.692.666v1.088h-2.25a2.829,2.829,0,0,0-2.732,2.06c-.039.134-.073.269-.107.4v11.317c.031.124.055.248.093.37a2.8,2.8,0,0,0,2.318,2.062.421.421,0,0,1,.08.032H551.3c.007-.008.014-.021.022-.025a.7.7,0,0,0,.5-.808A.745.745,0,0,0,551.033,1376.246Zm-.189-15.177h1.4c0,.049.013.093.013.138v1.915a.7.7,0,0,1-.548.726.688.688,0,0,1-.841-.481.667.667,0,0,1-.022-.126C550.828,1362.519,550.844,1361.8,550.844,1361.069Z" fill="#06090f"/>
  </g>
</svg>
