<!-- Generated by IcoMoon.io -->
<svg version="1.1" xmlns="http://www.w3.org/2000/svg" width="24" height="24" viewBox="0 0 24 24">
<title>clock-circle</title>
<path d="M11.763 8.447c0 0 0 0 0 0-0.365 0-0.661 0.296-0.661 0.661v3.668c0 0.001-0 0.003-0 0.004 0 0.18 0.074 0.343 0.193 0.46l0 0 2.468 2.472c0.117 0.117 0.278 0.189 0.456 0.189 0.001 0 0.002 0 0.003 0h-0c0.185-0.002 0.353-0.076 0.476-0.196l-0 0c0.117-0.12 0.189-0.284 0.189-0.465s-0.072-0.345-0.189-0.465l0 0-2.271-2.275v-3.393c0 0 0 0 0 0 0-0.365-0.296-0.661-0.661-0.661-0.001 0-0.002 0-0.003 0h0z"></path>
<path d="M21 11.994c-0.009-4.966-4.034-8.988-8.999-8.994h-0.006c-4.968 0.003-8.995 4.031-8.995 9 0 0.002 0 0.004 0 0.006v-0c0.003 4.968 4.031 8.995 9 8.995 2.488 0 4.739-1.009 6.368-2.64l0-0c1.626-1.619 2.632-3.859 2.632-6.334 0-0.011-0-0.022-0-0.033v0.002zM12 19.68v0c-4.204-0.047-7.595-3.466-7.595-7.677s3.39-7.63 7.59-7.677l0.004-0c4.205 0.047 7.595 3.466 7.595 7.677s-3.39 7.63-7.59 7.677l-0.004 0z"></path>
</svg>
