<svg xmlns="http://www.w3.org/2000/svg" width="20" height="15.701" viewBox="0 0 20 15.701">
  <g id="Group_43486" data-name="Group 43486" transform="translate(-390.014 -587.412)">
    <path id="Path_44763" data-name="Path 44763" d="M410.01,596.47c-.013-.045-.025-.09-.034-.135a4.29,4.29,0,0,0-3.1-3.647.346.346,0,0,1-.263-.266,6.324,6.324,0,0,0-1.541-2.768,6.732,6.732,0,0,0-6.728-2.02,6.824,6.824,0,0,0-5.156,5.865v0a.348.348,0,0,1-.33.367,3.746,3.746,0,0,0,.99,7.381h2.936a.1.1,0,0,0,.056-.024.61.61,0,0,0,0-1.2.1.1,0,0,0-.056-.023h-.113c-1,0-1.994.024-2.989-.01a2.35,2.35,0,0,1-2.134-1.378,2.378,2.378,0,0,1,.194-2.548A2.412,2.412,0,0,1,393.711,595a.645.645,0,0,0,.076,0,.638.638,0,0,0,.613-.66q.014-.156.021-.312a5.327,5.327,0,0,1,1.291-3.261,5.478,5.478,0,0,1,4.99-1.982,5.411,5.411,0,0,1,3.36,1.663,5.521,5.521,0,0,1,1.458,2.713.689.689,0,0,0,.436.576,2.675,2.675,0,0,0,.341.08,3.123,3.123,0,0,1-.7,6.176h-2.328l-.009,0a.625.625,0,0,0,.005,1.25l.014,0c.816,0,1.632.016,2.447-.005a4.337,4.337,0,0,0,4.043-2.943,10.118,10.118,0,0,0,.244-.985.1.1,0,0,0,0-.025V596.5A.085.085,0,0,0,410.01,596.47Z" fill="#1d1d1b"/>
    <path id="Path_44764" data-name="Path 44764" d="M402.505,597.226c-.682-.685-1.362-1.37-2.048-2.049l-.028-.028a.589.589,0,0,0-.833.021c-.688.68-1.369,1.367-2.044,2.047a.627.627,0,0,0,0,.885l.009.009,0,0a.627.627,0,0,0,.888-.009l.946-.967v5.349a.625.625,0,0,0,1.25,0v-5.364l.965.982,0,0a.618.618,0,0,0,.876,0l.009-.008A.621.621,0,0,0,402.505,597.226Z" fill="#1d1d1b"/>
  </g>
</svg>
