<svg xmlns="http://www.w3.org/2000/svg" width="20.201" height="13.876" viewBox="0 0 20.201 13.876">
  <path id="Path_44824" data-name="Path 44824" d="M132.672,250.586H116.121a1.827,1.827,0,0,0-1.825,1.825v10.227a1.827,1.827,0,0,0,1.825,1.824h16.551a1.827,1.827,0,0,0,1.825-1.824V252.411A1.827,1.827,0,0,0,132.672,250.586Zm.5,2.216a.338.338,0,0,1-.007.063l-8.147,5.237a1.428,1.428,0,0,1-1.239.006l-8.152-5.24a.9.9,0,0,1,.135-.614l0-.005c.045-.08.211-.341.42-.341H132.6c.211,0,.376.261.422.342a1.106,1.106,0,0,1,.15.495Zm0,9.836a.5.5,0,0,1-.5.5H116.121a.5.5,0,0,1-.5-.5V254.43l7.466,4.8a2.7,2.7,0,0,0,2.634,0l7.458-4.794Z" transform="translate(-114.296 -250.586)" fill="#1d1d1b"/>
</svg>
