<svg xmlns="http://www.w3.org/2000/svg" width="14.944" height="19.991" viewBox="0 0 14.944 19.991">
  <g id="Group_43369" data-name="Group 43369" transform="translate(-31.17 -476.444)">
    <path id="Path_44415" data-name="Path 44415" d="M45.755,481.707l-4.9-4.92a1.165,1.165,0,0,0-.827-.343H33.663a2.507,2.507,0,0,0-2.493,2.5v14.989a2.509,2.509,0,0,0,2.5,2.5h9.95a2.509,2.509,0,0,0,2.5-2.5V482.571A1.223,1.223,0,0,0,45.755,481.707Zm-.905,12.227a1.242,1.242,0,0,1-1.235,1.241H33.664a1.247,1.247,0,0,1-1.239-1.24v-14.99a1.247,1.247,0,0,1,1.241-1.242H40.5v2.491a1.88,1.88,0,0,0,1.872,1.879H44.85Z"/>
  </g>
</svg>
