<svg xmlns="http://www.w3.org/2000/svg" width="13.944" height="17.992" viewBox="0 0 13.944 17.992">
  <path id="Union_2056" data-name="Union 2056" d="M2.33,17.992A2.3,2.3,0,0,1,0,15.741V2.251A2.3,2.3,0,0,1,2.327,0H8.263a1.117,1.117,0,0,1,.772.309l4.574,4.429a1.073,1.073,0,0,1,.335.777V15.741a2.3,2.3,0,0,1-2.33,2.251ZM1.171,2.251v13.49a1.144,1.144,0,0,0,1.157,1.116h9.285a1.137,1.137,0,0,0,1.151-1.116V5.066H10.454a1.723,1.723,0,0,1-1.746-1.69V1.133H2.33A1.144,1.144,0,0,0,1.171,2.251ZM3.788,13.774a.475.475,0,0,1,0-.949H7.243a.5.5,0,0,1,.342.153.463.463,0,0,1,.131.34.487.487,0,0,1-.469.456Zm0-2.312a.474.474,0,0,1,0-.948h6.359a.494.494,0,0,1,.342.152.466.466,0,0,1,.13.341.485.485,0,0,1-.469.454Zm0-2.311a.474.474,0,0,1,0-.948h6.359a.494.494,0,0,1,.342.152.466.466,0,0,1,.13.341.485.485,0,0,1-.469.454Z"/>
</svg>
