<!-- Generated by IcoMoon.io -->
<svg version="1.1" xmlns="http://www.w3.org/2000/svg" width="24" height="24" viewBox="0 0 24 24">
<title>filter</title>
<path d="M12.014 3.165h7.379c0.006-0 0.013-0 0.020-0 1.072 0 1.94 0.869 1.94 1.94 0 0.521-0.206 0.995-0.54 1.343l0.001-0.001q-3.067 3.37-6.132 6.736c-0.163 0.165-0.264 0.391-0.264 0.641 0 0.015 0 0.030 0.001 0.045l-0-0.002c0.015 1.127 0 2.252 0.008 3.378 0.001 0.013 0.001 0.028 0.001 0.043 0 0.279-0.134 0.527-0.341 0.683l-0.002 0.002q-1.635 1.304-3.263 2.613l-0.104 0.080c-0.118 0.105-0.274 0.169-0.445 0.169-0.111 0-0.216-0.027-0.308-0.075l0.004 0.002c-0.237-0.111-0.397-0.347-0.397-0.62 0-0.016 0.001-0.031 0.002-0.047l-0 0.002v-6.362c0-0.008 0.001-0.018 0.001-0.027 0-0.161-0.064-0.308-0.169-0.414l0 0-6.201-6.817c-0.344-0.35-0.556-0.83-0.556-1.359 0-0.838 0.532-1.552 1.276-1.824l0.013-0.004c0.216-0.073 0.465-0.115 0.723-0.115 0.013 0 0.027 0 0.040 0l-0.002-0q3.659-0.013 7.315-0.009zM10.959 18.674c0.034-0.014 0.062-0.029 0.089-0.045l-0.003 0.002c0.624-0.506 1.255-1.010 1.883-1.525 0.064-0.066 0.104-0.157 0.104-0.257v-0c0.007-1.163 0.009-2.325 0-3.486-0-0.009-0.001-0.020-0.001-0.031 0-0.268 0.106-0.512 0.278-0.691l-0 0q3.118-3.43 6.227-6.859c0.074-0.080 0.144-0.162 0.218-0.241 0.12-0.103 0.196-0.255 0.196-0.425 0-0.082-0.018-0.16-0.050-0.231l0.001 0.004c-0.093-0.206-0.296-0.347-0.532-0.347-0.023 0-0.046 0.001-0.069 0.004l0.003-0h-14.589c-0.032-0.006-0.069-0.010-0.106-0.010-0.319 0-0.578 0.259-0.578 0.578 0 0.187 0.089 0.353 0.227 0.459l0.001 0.001q3.222 3.533 6.433 7.078c0.167 0.172 0.269 0.406 0.269 0.664 0 0.007-0 0.014-0 0.022l0-0.001c-0.007 1.175 0 2.353 0 3.528z"></path>
</svg>
