<svg xmlns="http://www.w3.org/2000/svg" width="19.321" height="16.049" viewBox="0 0 19.321 16.049">
  <path id="Path_78359" data-name="Path 78359" d="M602.658,1456.927H593.44v-.973a1.483,1.483,0,0,0-1.481-1.48h-4.843a1.482,1.482,0,0,0-1.48,1.48v12.27a2.3,2.3,0,0,0,2.3,2.3h14.723a2.3,2.3,0,0,0,2.3-2.3v-9A2.3,2.3,0,0,0,602.658,1456.927Zm-15.692,1.327h15.692a.973.973,0,0,1,.972.972v9a.973.973,0,0,1-.972.972H587.935a.974.974,0,0,1-.973-.972V1459.8c0-.037,0-.074.007-.116Z" transform="translate(-585.636 -1454.474)" fill="#1d1d1b"/>
</svg>
