<svg xmlns="http://www.w3.org/2000/svg" width="17.456" height="17.534" viewBox="0 0 17.456 17.534">
  <path id="Path_44443" data-name="Path 44443" d="M639.765,415.036h4.9a2.151,2.151,0,0,0,2.149-2.125v-6.919a1.232,1.232,0,0,0-.372-.877l-7.514-7.283a1.239,1.239,0,0,0-1.684,0l-7.513,7.281a1.229,1.229,0,0,0-.373.878v6.92a2.15,2.15,0,0,0,2.147,2.123h4.9a1.222,1.222,0,0,0,1.216-1.22v-3.781a.43.43,0,0,1,.465-.382.436.436,0,0,1,.465.382v3.782A1.222,1.222,0,0,0,639.765,415.036Zm-1.613-6.794a1.874,1.874,0,0,0-1.944,1.8v3.583h-4.72a.739.739,0,0,1-.729-.706V406.07l7.322-7.094,7.321,7.094v6.842a.769.769,0,0,1-.764.715h-4.684v-3.593A1.879,1.879,0,0,0,638.152,408.242Z" transform="translate(-629.355 -397.503)"/>
</svg>
