<svg xmlns="http://www.w3.org/2000/svg" width="17.948" height="17.947" viewBox="0 0 17.948 17.947">
  <g id="Group_43364" data-name="Group 43364" transform="translate(518.652 340.841) rotate(180)">
    <path id="Path_44351" data-name="Path 44351" d="M510.806,328.36a1.13,1.13,0,0,0-2.26,0v3.112a1.131,1.131,0,0,0,1.126,1.042h0a1.131,1.131,0,0,0,1.13-1.13Z"/>
    <path id="Path_44352" data-name="Path 44352" d="M509.674,336.508h0a1.131,1.131,0,1,0-1.13-1.132v.089a1.133,1.133,0,0,0,1.128,1.043Z"/>
    <path id="Path_44353" data-name="Path 44353" d="M509.7,322.894h-.039a8.975,8.975,0,0,0-6.326,15.32h0a8.971,8.971,0,0,0,6.321,2.626h.048a8.974,8.974,0,0,0,0-17.947Zm-.02,16.522a7.547,7.547,0,1,1,7.547-7.548A7.577,7.577,0,0,1,509.676,339.416Z"/>
  </g>
</svg>
