<svg xmlns="http://www.w3.org/2000/svg" width="20" height="14.396" viewBox="0 0 20 14.396">
  <g id="Group_43448" data-name="Group 43448" transform="translate(-414.06 -674.367)">
    <path id="Path_44639" data-name="Path 44639" d="M433.875,687.625l-.659-.758-1.721-1.968.019-.016.02-.018a6.266,6.266,0,1,0-1.069.946l.017-.014.056.058c.041.045.074.079.105.118q1.105,1.27,2.218,2.538l.04.045a.652.652,0,0,0,.462.2.085.085,0,0,0,.023,0,.666.666,0,0,0,.466-.188A.673.673,0,0,0,433.875,687.625Zm-2.077-6.939a4.93,4.93,0,1,1-5.05-4.962l.032,0h.123a4.935,4.935,0,0,1,4.895,4.966Z" fill="#1d1d1b"/>
    <path id="Path_44640" data-name="Path 44640" d="M420.953,675.723a.646.646,0,0,0-.593-.422h-3.833q-.89,0-1.781,0a.683.683,0,0,0-.482.2.675.675,0,0,0,.482,1.149H420.3a.688.688,0,0,0,.522-.221A.636.636,0,0,0,420.953,675.723Z" fill="#1d1d1b"/>
    <path id="Path_44641" data-name="Path 44641" d="M419.424,682.779h0l-1.112,0-1.267,0H414.8c-.039,0-.063,0-.089,0a.661.661,0,0,0-.649.67c0,.019,0,.036,0,.055a.68.68,0,0,0,.673.622.25.25,0,0,0,.045,0c.757,0,1.519.005,2.281.005s1.522,0,2.276-.005a.9.9,0,0,0,.39-.092.664.664,0,0,0,.163-1.043A.65.65,0,0,0,419.424,682.779Z" fill="#1d1d1b"/>
    <path id="Path_44642" data-name="Path 44642" d="M414.756,680.38h3.653a.675.675,0,0,0,.47-1.155.658.658,0,0,0-.477-.193c-1.2,0-2.412,0-3.607,0a.674.674,0,0,0-.039,1.347Z" fill="#1d1d1b"/>
  </g>
</svg>
