<svg xmlns="http://www.w3.org/2000/svg" width="24.434" height="16.967" viewBox="0 0 24.434 16.967">
  <g id="list-ul-align-right" transform="translate(1.176 -4.695)">
    <path id="Path_80809" data-name="Path 80809" d="M-.326,6.438H22.365a.871.871,0,1,0,0-1.743H-.326a.871.871,0,0,0-.871.871.871.871,0,0,0,.871.871h0Z" transform="translate(0.022)"/>
    <path id="Path_80810" data-name="Path 80810" d="M22.365,13.363H-.326a.871.871,0,0,0-.871.871.871.871,0,0,0,.871.871H22.365a.871.871,0,1,0,0-1.743Z" transform="translate(0.022 1.483)"/>
    <path id="Path_80811" data-name="Path 80811" d="M21.624,17.695H3.422a.871.871,0,1,0,0,1.743h18.2a.871.871,0,1,0,0-1.743Z" transform="translate(0.763 2.224)"/>
    <path id="Path_80814" data-name="Path 80814" d="M21.624,9.031H3.448a.871.871,0,1,0,0,1.743H21.624a.871.871,0,1,0,0-1.743Z" transform="translate(0.763 0.742)"/>
  </g>
</svg>
