<svg xmlns="http://www.w3.org/2000/svg" width="17.681" height="17.712" viewBox="0 0 17.681 17.712">
  <path id="Path_80809" data-name="Path 80809" d="M510.19,1377.433c.362-.034.736-.068,1.1-.132a8.835,8.835,0,1,0-9.421-4.568.537.537,0,0,1,.038.371c-.11.4-.227.786-.345,1.175l-.1.347q-.288.95-.569,1.9l-.015.043a.664.664,0,0,0,.431.832.917.917,0,0,0,.485,0c.669-.191,1.337-.391,2.005-.59.463-.138.925-.277,1.389-.412a.526.526,0,0,1,.142-.019.553.553,0,0,1,.23.051,9.457,9.457,0,0,0,4.129,1.059h0C509.865,1377.463,510.027,1377.448,510.19,1377.433Zm-.523-1.362a7.319,7.319,0,0,1-3.737-1.024.912.912,0,0,0-.79-.092c-.511.161-1.023.313-1.533.464l-.678.2c-.033.01-.066.017-.123.03l-.3.228.123-.376c.071-.235.139-.469.207-.7.159-.545.31-1.061.48-1.58a1.028,1.028,0,0,0-.1-.909,7.41,7.41,0,1,1,6.454,3.757Z" transform="translate(-500.838 -1359.774)"/>
</svg>
