<svg xmlns="http://www.w3.org/2000/svg" width="13.077" height="20" viewBox="0 0 13.077 20">
  <path id="Union_1988" data-name="Union 1988" d="M680.685,1425.573H678.19a.806.806,0,0,1-.6-.243.721.721,0,0,1-.165-.564.735.735,0,0,1,.785-.63h1.975v-1.345l-.125-.022c-.172-.03-.354-.059-.527-.094a6.482,6.482,0,0,1-4.418-3.38,6.358,6.358,0,0,1-.733-2.985.7.7,0,0,1,.664-.728h.005a.7.7,0,0,1,.755.642c.02.15.035.31.057.46a5.776,5.776,0,0,0,.157.989,4.863,4.863,0,0,0,3.044,3.359,5.245,5.245,0,0,0,1.909.379,5.006,5.006,0,0,0,2.745-.864,4.948,4.948,0,0,0,2.256-3.548c.015-.135.03-.28.037-.43.008-.126.02-.261.035-.391a.694.694,0,0,1,.679-.6l.019-.008a.718.718,0,0,1,.512.217.7.7,0,0,1,.2.5,6.538,6.538,0,0,1-4.648,6.249c-.28.086-.56.138-.858.2-.1.015-.2.037-.31.059v1.331h1.926a1.386,1.386,0,0,1,.379.052.709.709,0,0,1,.46.77.721.721,0,0,1-.63.6.611.611,0,0,1-.135.007Zm-3.528-8.207a5.129,5.129,0,0,1-.158-1.176c-.007-1.966-.022-4.3,0-6.665a3.806,3.806,0,0,1,2.32-3.641,1.987,1.987,0,0,1,.266-.108,3.808,3.808,0,0,1,1.247-.2h.072a3.931,3.931,0,0,1,1.24.2,3.377,3.377,0,0,1,.679.282,3.74,3.74,0,0,1,1.98,3.43c.022,2.32.015,4.606.008,6.746a3.909,3.909,0,0,1-3.049,3.863,3.488,3.488,0,0,1-.858.1,3.93,3.93,0,0,1-3.745-2.832Zm3.439-10.38a2.433,2.433,0,0,0-2.155,2.345c-.022,2.753-.015,5,0,7.083a2.455,2.455,0,0,0,2.458,2.349,2.3,2.3,0,0,0,.568-.071,2.44,2.44,0,0,0,1.9-2.416c.007-.778.007-1.57.007-2.335-.007-.352-.007-.706-.007-1.065v-.888c.007-.8.007-1.639,0-2.451a3.244,3.244,0,0,0-.086-.733,2.438,2.438,0,0,0-2.394-1.83,2.154,2.154,0,0,0-.29.012Z" transform="translate(-674.376 -1405.574)"/>
</svg>
