<svg xmlns="http://www.w3.org/2000/svg" width="15.093" height="15.094" viewBox="0 0 15.093 15.094">
  <path id="Union_55" data-name="Union 55" d="M692.649,836.083v-.008h0v-.019a.362.362,0,0,1,.014-.1l.672-3.375h0a.714.714,0,0,1,.169-.326l9.867-9.869h0a2.558,2.558,0,0,1,3.609,0l.044.03a2.538,2.538,0,0,1-.038,3.574l-9.86,9.875a.708.708,0,0,1-.343.172l-3.368.674h0a.476.476,0,0,1-.129.024.649.649,0,0,1-.638-.651Zm1.908-3.057-.443,2.237,2.2-.453h.021l7.934-7.934-1.783-1.781Zm9.74-9.716-.9.883,1.778,1.783.877-.863.026-.021a1.259,1.259,0,0,0,0-1.781h0a1.263,1.263,0,0,0-1.782,0Zm-7.169,12.557,9.9-13.449" transform="translate(-692.648 -821.641)"/>
</svg>
