<!-- Generated by IcoMoon.io -->
<svg version="1.1" xmlns="http://www.w3.org/2000/svg" width="24" height="24" viewBox="0 0 24 24">
<title>reports</title>
<path d="M20.623 6.591c-0.381-1.451-1.434-2.595-2.799-3.094l-0.031-0.010c-0.786-0.3-1.695-0.475-2.644-0.477h-0.001q-3.134-0.020-6.267 0c-0.815 0.009-1.597 0.137-2.334 0.367l0.058-0.015c-1.514 0.402-2.695 1.537-3.155 2.993l-0.009 0.032c-0.253 0.729-0.403 1.569-0.41 2.443l-0 0.003q-0.022 3.176 0 6.34c0.008 0.802 0.134 1.572 0.359 2.298l-0.015-0.057c0.362 1.367 1.321 2.457 2.573 2.991l0.029 0.011c0.846 0.354 1.828 0.563 2.859 0.571l0.003 0c1.050 0.025 2.095 0.006 3.153 0.006h2.453c0.069 0.002 0.151 0.003 0.233 0.003 0.923 0 1.817-0.12 2.669-0.344l-0.073 0.016c1.615-0.391 2.874-1.608 3.319-3.168l0.008-0.032c0.224-0.691 0.357-1.486 0.365-2.312l0-0.004c0.018-2.042 0.015-4.083 0.007-6.124-0.001-0.869-0.129-1.707-0.367-2.498l0.016 0.061zM19.714 15.142c-0.006 0.698-0.115 1.369-0.312 2.001l0.013-0.049c-0.321 1.171-1.236 2.071-2.394 2.363l-0.023 0.005c-0.658 0.182-1.413 0.286-2.193 0.286-0.060 0-0.12-0.001-0.18-0.002l0.009 0c-1.916 0-3.828 0-5.742-0.012-0.744-0.002-1.459-0.123-2.129-0.345l0.048 0.014c-1.166-0.366-2.044-1.323-2.291-2.511l-0.004-0.022c-0.155-0.608-0.244-1.306-0.244-2.024 0-0.019 0-0.038 0-0.057l-0 0.003v-2.788h0.007v0.006c0-1.045-0.009-2.086 0.006-3.128 0.006-0.685 0.108-1.343 0.292-1.966l-0.013 0.051c0.327-1.246 1.319-2.197 2.566-2.458l0.022-0.004c0.625-0.155 1.342-0.244 2.080-0.244 0.047 0 0.093 0 0.139 0.001l-0.007-0c1.916 0 3.829-0.015 5.742 0.020 0.661 0.022 1.29 0.115 1.894 0.273l-0.060-0.013c1.29 0.286 2.283 1.296 2.54 2.573l0.004 0.021c0.153 0.584 0.241 1.254 0.241 1.944 0 0.006 0 0.012-0 0.019v-0.001c-0.001 2.015 0.003 4.030-0.011 6.046z"></path>
<path d="M16.059 9.303c-0.048-0.014-0.104-0.021-0.161-0.021-0.205 0-0.387 0.1-0.499 0.254l-0.001 0.002q-0.928 1.203-1.859 2.404c-0.166 0.214-0.236 0.222-0.449 0.053-0.472-0.371-0.941-0.749-1.417-1.116-0.017-0.015-0.035-0.029-0.053-0.043-0.24-0.185-0.545-0.297-0.877-0.297-0.466 0-0.881 0.221-1.145 0.564l-0.002 0.003q-1.012 1.285-1.996 2.594c-0.080 0.12-0.127 0.267-0.127 0.425 0 0.011 0 0.021 0.001 0.031l-0-0.001c0.032 0.311 0.293 0.552 0.61 0.552 0.203 0 0.383-0.099 0.495-0.251l0.001-0.002 1.911-2.488c0.178-0.231 0.243-0.24 0.478-0.058q0.687 0.537 1.369 1.081c0.243 0.212 0.561 0.344 0.909 0.352l0.002 0c0.027 0.002 0.059 0.003 0.091 0.003 0.439 0 0.832-0.203 1.088-0.52l0.002-0.003q0.998-1.256 1.964-2.545c0.074-0.116 0.118-0.257 0.118-0.408 0-0.017-0.001-0.033-0.002-0.049l0 0.002c-0.021-0.255-0.204-0.463-0.446-0.519l-0.004-0.001z"></path>
</svg>
