<!-- Generated by IcoMoon.io -->
<svg version="1.1" xmlns="http://www.w3.org/2000/svg" width="24" height="24" viewBox="0 0 24 24">
<title>sliders</title>
<path d="M20.985 11.368h-10.603c-0.306-1.195-1.373-2.065-2.644-2.065s-2.338 0.87-2.64 2.046l-0.004 0.019h-2.083c-0.357 0-0.647 0.29-0.647 0.647s0.29 0.647 0.647 0.647h2.068c0.291 1.219 1.371 2.111 2.659 2.111s2.368-0.892 2.655-2.093l0.004-0.019h10.588c0.357 0 0.647-0.29 0.647-0.647s-0.29-0.647-0.647-0.647v0zM6.446 12.64c-0.092-0.182-0.147-0.397-0.148-0.625v-0c0-0.796 0.645-1.441 1.441-1.441s1.441 0.645 1.441 1.441v0c-0.001 0.228-0.056 0.443-0.153 0.633l0.004-0.008-0.010 0.022h0.011c-0.011 0.018-0.021 0.033-0.032 0.048l0.001-0.001c-0.011 0.016-0.023 0.032-0.033 0.051-0.022 0.037-0.042 0.067-0.063 0.095-0.254 0.38-0.681 0.628-1.167 0.628s-0.913-0.247-1.164-0.623l-0.003-0.005c-0.021-0.027-0.041-0.059-0.060-0.091l-0.002-0.004c-0.011-0.018-0.022-0.035-0.035-0.051s-0.021-0.030-0.031-0.047h0.012z"></path>
<path d="M3.011 7.266h10.181c0.313 1.185 1.375 2.044 2.638 2.044s2.325-0.859 2.634-2.025l0.004-0.019h2.514c0.358 0 0.648-0.29 0.648-0.648s-0.29-0.648-0.648-0.648v0h-2.487c-0.287-1.225-1.37-2.124-2.664-2.124s-2.377 0.899-2.66 2.106l-0.004 0.019h-10.156c-0.358 0-0.648 0.29-0.648 0.648s0.29 0.648 0.648 0.648v0zM16.93 5.659l0.010 0.011c0.207 0.245 0.333 0.565 0.333 0.914 0 0.513-0.272 0.963-0.68 1.213l-0.006 0.004h-0.015c-0.087 0.052-0.188 0.098-0.294 0.132l-0.010 0.003c-0.025 0.008-0.050 0.016-0.077 0.023-0.109 0.033-0.233 0.052-0.363 0.052s-0.254-0.019-0.372-0.054l0.009 0.002c-0.018 0-0.035-0.010-0.052-0.015l-0.027-0.008c-0.115-0.038-0.214-0.083-0.306-0.139l0.007 0.004c-0.005-0.005-0.010-0.005-0.016-0.009-0.413-0.255-0.683-0.704-0.683-1.217 0-0.349 0.125-0.668 0.333-0.916l-0.002 0.002 0.007-0.008 0.024-0.029c0.163-0.182 0.371-0.322 0.606-0.403l0.010-0.003c0.028-0.009 0.056-0.018 0.084-0.025 0.113-0.035 0.242-0.055 0.377-0.057h0.016c0.131 0.004 0.255 0.024 0.373 0.060l-0.010-0.003c0.028 0.007 0.055 0.016 0.083 0.026 0.246 0.083 0.453 0.223 0.616 0.404l0.001 0.001c0.011 0.015 0.017 0.024 0.024 0.033z"></path>
<path d="M20.985 16.812h-2.487c-0.283-1.232-1.369-2.136-2.667-2.136s-2.385 0.905-2.664 2.118l-0.004 0.018h-10.152c-0.357 0-0.647 0.29-0.647 0.647s0.29 0.647 0.647 0.647h10.184c0.311 1.186 1.374 2.047 2.638 2.047s2.326-0.861 2.634-2.028l0.004-0.019h2.518c0.357 0 0.647-0.29 0.647-0.647s-0.29-0.647-0.647-0.647v0zM16.584 18.638v0h-0.008l-0.011 0.005c-0.084 0.051-0.182 0.095-0.284 0.128l-0.010 0.003-0.026 0.009c-0.017 0.005-0.033 0.011-0.051 0.015-0.108 0.031-0.233 0.050-0.361 0.052l-0.001 0c-0.129-0.002-0.252-0.020-0.369-0.054l0.010 0.002c-0.023-0.006-0.047-0.014-0.069-0.021h-0.010c-0.112-0.036-0.209-0.080-0.3-0.134l0.007 0.004-0.011-0.005h-0.009c-0.415-0.254-0.688-0.705-0.688-1.22 0-0.344 0.122-0.659 0.324-0.906l-0.002 0.002 0.007-0.009c0.010-0.013 0.020-0.024 0.031-0.038 0.163-0.185 0.37-0.327 0.605-0.409l0.010-0.003 0.085-0.026c0.114-0.036 0.244-0.057 0.38-0.057s0.266 0.021 0.389 0.059l-0.009-0.002 0.075 0.023h0.009c0.245 0.086 0.452 0.228 0.613 0.41l0.001 0.002c0.013 0.016 0.026 0.030 0.039 0.048 0.201 0.242 0.323 0.556 0.324 0.898v0c-0.002 0.515-0.275 0.965-0.684 1.217l-0.006 0.004z"></path>
</svg>
