<svg xmlns="http://www.w3.org/2000/svg" width="15.798" height="20" viewBox="0 0 15.798 20">
  <g id="Group_43363" data-name="Group 43363" transform="translate(-501.779 -433.444)">
    <path id="Path_44391" data-name="Path 44391" d="M517.467,437.644a3.029,3.029,0,0,0-2.915-2.224h-2.627V434.1a.655.655,0,0,0-.651-.65q-1.6-.008-3.2-.008a.638.638,0,0,0-.64.624v1.352H504.8a3.029,3.029,0,0,0-2.916,2.224,3.246,3.246,0,0,0-.11.841v12.091a2.334,2.334,0,0,0,.093.6l.005.035a2.992,2.992,0,0,0,1.244,1.725c.06.039.123.078.186.115a2.967,2.967,0,0,0,.776.3,2.587,2.587,0,0,0,.265.053c.029.006.051.008.074.011l.061.008a1.662,1.662,0,0,0,.224.015H514.78a.887.887,0,0,0,.215-.032,3.375,3.375,0,0,0,2.51-2.306,1.725,1.725,0,0,0,.072-.487v-12.14A3.223,3.223,0,0,0,517.467,437.644Zm-8.706-1.578c0-.243,0-.485,0-.727q0-.216,0-.432v-.127h1.812l.018,2.118a1.677,1.677,0,0,1-.132.811.89.89,0,0,1-.612.452.975.975,0,0,1-.185.018.891.891,0,0,1-.564-.2,1.082,1.082,0,0,1-.346-.808,5.043,5.043,0,0,1,0-.673C508.758,436.356,508.764,436.21,508.761,436.066Zm6.916,15.61a1.718,1.718,0,0,1-1.249.431h-.8l-.655,0c-1.078,0-2.293.007-3.234,0l-.106.006H504.93c-.032,0-.065,0-.1,0a1.88,1.88,0,0,1-.244-.017,1.7,1.7,0,0,1-.485-.143c-.051-.024-.1-.049-.147-.077a1.721,1.721,0,0,1-.849-1.377V438.558a1.731,1.731,0,0,1,.821-1.555,1.462,1.462,0,0,1,.146-.08,1.758,1.758,0,0,1,.85-.171h2.529l-.02.143a2.376,2.376,0,0,0,.492,1.793,2.2,2.2,0,0,0,1.63.831,2.133,2.133,0,0,0,1.525-.494,2.316,2.316,0,0,0,.839-2.117l-.019-.144h2.62a1.851,1.851,0,0,1,.459.067,1.693,1.693,0,0,1,1.264,1.716v8a.858.858,0,0,0,0,.143v3.594a1.773,1.773,0,0,1,0,.207h.012A1.715,1.715,0,0,1,515.677,451.676Z" fill="#1d1d1b"/>
    <path id="Path_44392" data-name="Path 44392" d="M514.139,442.57h-5.015a.531.531,0,1,0,0,1.062h5.015a.531.531,0,1,0,0-1.062Z" fill="#1d1d1b"/>
    <path id="Path_44393" data-name="Path 44393" d="M505.3,444.248a.538.538,0,0,0,.753,0l1.539-1.542a.531.531,0,1,0-.751-.751l-1.165,1.165-.2-.2a.531.531,0,1,0-.751.752Z" fill="#1d1d1b"/>
    <path id="Path_44394" data-name="Path 44394" d="M514.139,446.279h-5.015a.532.532,0,1,0,0,1.063h5.015a.532.532,0,1,0,0-1.063Z" fill="#1d1d1b"/>
    <path id="Path_44395" data-name="Path 44395" d="M506.839,445.664l-1.166,1.165-.2-.2a.531.531,0,0,0-.751.752l.571.571a.531.531,0,0,0,.737.016l1.557-1.556a.531.531,0,1,0-.752-.751Z" fill="#1d1d1b"/>
  </g>
</svg>
