<svg xmlns="http://www.w3.org/2000/svg" width="17.963" height="16" viewBox="0 0 17.963 16">
  <g id="Group_43361" data-name="Group 43361" transform="translate(-629.124 -435.454)">
    <path id="Path_44384" data-name="Path 44384" d="M647.086,437.684a2.129,2.129,0,0,0-2.218-2.227q-3.816-.008-7.635,0a2.3,2.3,0,0,0-.621.079,2.122,2.122,0,0,0-1.595,2.147v7.3q0,2.1,0,4.193a2.441,2.441,0,0,0,.085.686,2.1,2.1,0,0,0,2.129,1.585l3.527,0q2.043,0,4.086,0a2.288,2.288,0,0,0,.644-.083,2.123,2.123,0,0,0,1.595-2.166Q647.087,443.444,647.086,437.684Zm-10.807,4.372c0-1.453,0-2.906.007-4.359a1.421,1.421,0,0,1,.147-.618c.132-.255.371-.36.824-.361q1.126,0,2.253,0h2.2c1.017,0,2.031,0,3.046.009a1.7,1.7,0,0,1,.708.153c.246.118.357.357.357.776q0,5.791,0,11.583a.834.834,0,0,1-.955.954q-3.819.008-7.634,0c-.51,0-.8-.181-.9-.566a1.952,1.952,0,0,1-.051-.5q0-2.236,0-4.473v-1.071h0Z" fill="#1d1d1b"/>
    <path id="Path_44385" data-name="Path 44385" d="M632.689,436.938c-.228,0-.61.111-.612.8v11.41a1.951,1.951,0,0,0,.019.306.605.605,0,0,0,.6.513.7.7,0,0,0,.135-.014c.229-.047.5-.211.5-.721V437.715a.833.833,0,0,0-.208-.616A.647.647,0,0,0,632.689,436.938Z" fill="#1d1d1b"/>
    <path id="Path_44386" data-name="Path 44386" d="M630.367,438.916a.585.585,0,0,0-.554-.5.6.6,0,0,0-.472.146.8.8,0,0,0-.217.615q0,4.275,0,8.551a1.334,1.334,0,0,0,.04.315.579.579,0,0,0,.588.449h.03a.589.589,0,0,0,.583-.5,1.987,1.987,0,0,0,.017-.307V439.18A1.54,1.54,0,0,0,630.367,438.916Z" fill="#1d1d1b"/>
  </g>
</svg>
