<svg xmlns="http://www.w3.org/2000/svg" width="18" height="17.246" viewBox="0 0 18 17.246">
  <g id="Group_175128" data-name="Group 175128" transform="translate(-629.105 -1406.933)" opacity="0.995">
    <path id="Path_80809" data-name="Path 80809" d="M642.506,1406.933h-7.473a1.724,1.724,0,0,0-1.724,1.724v13.8a1.724,1.724,0,0,0,1.724,1.725h10.348a1.724,1.724,0,0,0,1.724-1.725v-10.923A4.6,4.6,0,0,0,642.506,1406.933Zm.746.992a3.868,3.868,0,0,1,2.861,2.861h-2.565a.3.3,0,0,1-.3-.3Zm2.129,15.391H635.033a.862.862,0,0,1-.862-.862v-13.8a.862.862,0,0,1,.862-.862h7.33v2.695a1.186,1.186,0,0,0,1.185,1.185h2.7v10.779A.863.863,0,0,1,645.381,1423.316Z" fill="#5b7084"/>
    <rect id="Rectangle_24849" data-name="Rectangle 24849" width="9.725" height="10.697" rx="1.889" transform="translate(629.105 1410.693)" fill="#005bba"/>
    <g id="W-2-2">
      <g id="W-2-3">
        <g id="Group_37214" data-name="Group 37214">
          <path id="Path_38882" data-name="Path 38882" d="M634.975,1418.374l-.788-3.082-.781,3.082H632.39l-1.285-4.49h1.07l.788,3.243.85-3.243h.747l.85,3.243.783-3.243h1.077l-1.279,4.489Z" fill="#fff"/>
        </g>
      </g>
    </g>
    <path id="Path_39742" data-name="Path 39742" d="M644.943,1414.537h-4.6a.43.43,0,0,1-.431-.43h0a.429.429,0,0,1,.43-.43h4.6a.43.43,0,0,1,.431.43h0a.431.431,0,0,1-.429.431Z" fill="#4b99ea"/>
    <path id="Path_39743" data-name="Path 39743" d="M644.943,1416.262h-4.6a.43.43,0,0,1-.431-.43h0a.43.43,0,0,1,.43-.431h4.6a.431.431,0,0,1,.431.431h0a.431.431,0,0,1-.429.431Z" fill="#005bba"/>
    <path id="Path_39744" data-name="Path 39744" d="M644.943,1417.987h-4.6a.43.43,0,0,1-.431-.43h0a.43.43,0,0,1,.43-.431h4.6a.431.431,0,0,1,.431.431h0a.431.431,0,0,1-.429.431Z" fill="#005bba"/>
  </g>
</svg>
