<svg xmlns="http://www.w3.org/2000/svg" width="15.009" height="20" viewBox="0 0 15.009 20">
  <g id="word-icon" transform="translate(-673.41 -1358.656)">
    <path id="Path_17643" data-name="Path 17643" d="M682.792,1358.656h-6.875a2.507,2.507,0,0,0-2.507,2.5v15.005a2.506,2.506,0,0,0,2.507,2.5h9.995a2.507,2.507,0,0,0,2.507-2.5V1364.28Zm4.374,17.5h0a1.248,1.248,0,0,1-1.249,1.247h-10a1.251,1.251,0,0,1-1.253-1.248v-15.005a1.252,1.252,0,0,1,1.253-1.252h6.873v2.5a1.877,1.877,0,0,0,1.875,1.876h2.5Z"/>
    <g id="W">
      <g id="W-2">
        <g id="Group_11362" data-name="Group 11362">
          <path id="Path_17644" data-name="Path 17644" d="M681.768,1371.982l-.855-3.345-.846,3.345h-1.1l-1.394-4.874h1.161l.855,3.52.93-3.52h.81l.92,3.52.845-3.52h1.168l-1.387,4.874Z"/>
        </g>
      </g>
    </g>
  </g>
</svg>
